<svg xmlns="http://www.w3.org/2000/svg" xmlns:xlink="http://www.w3.org/1999/xlink" width="40" zoomAndPan="magnify" viewBox="0 0 30 30.000001" height="40" preserveAspectRatio="xMidYMid meet" version="1.0"><defs><clipPath id="0a21e478d7"><path d="M 4.386719 3.730469 L 25.960938 3.730469 L 25.960938 25.304688 L 4.386719 25.304688 Z M 4.386719 3.730469 " clip-rule="nonzero"/></clipPath><clipPath id="6d657431e0"><path d="M 15.171875 3.730469 C 9.214844 3.730469 4.386719 8.558594 4.386719 14.515625 C 4.386719 20.472656 9.214844 25.304688 15.171875 25.304688 C 21.128906 25.304688 25.960938 20.472656 25.960938 14.515625 C 25.960938 8.558594 21.128906 3.730469 15.171875 3.730469 Z M 15.171875 3.730469 " clip-rule="nonzero"/></clipPath><clipPath id="58e40bc388"><path d="M 11.765625 7.300781 L 18.296875 7.300781 L 18.296875 21.816406 L 11.765625 21.816406 Z M 11.765625 7.300781 " clip-rule="nonzero"/></clipPath></defs><g clip-path="url(#0a21e478d7)"><g clip-path="url(#6d657431e0)"><path fill="#000000" d="M 4.386719 3.730469 L 25.960938 3.730469 L 25.960938 25.304688 L 4.386719 25.304688 Z M 4.386719 3.730469 " fill-opacity="1" fill-rule="nonzero"/></g></g><g clip-path="url(#58e40bc388)"><path fill="#ffffff" d="M 16.792969 9.71875 L 18.296875 9.71875 L 18.296875 7.335938 L 16.375 7.335938 L 16.375 7.34375 C 13.84375 7.441406 13.320312 8.929688 13.277344 10.5 L 13.273438 10.5 L 13.273438 12.152344 L 11.765625 12.152344 L 11.765625 14.535156 L 13.273438 14.535156 L 13.273438 21.785156 L 15.976562 21.785156 L 15.976562 14.535156 L 17.914062 14.535156 L 18.296875 12.152344 L 15.976562 12.152344 L 15.976562 10.671875 C 15.976562 10.144531 16.3125 9.71875 16.792969 9.71875 Z M 16.792969 9.71875 " fill-opacity="1" fill-rule="nonzero"/></g></svg>