<svg xmlns="http://www.w3.org/2000/svg" xmlns:xlink="http://www.w3.org/1999/xlink" width="40" zoomAndPan="magnify" viewBox="0 0 30 30.000001" height="40" preserveAspectRatio="xMidYMid meet" version="1.0"><defs><clipPath id="a8f0669e2c"><path d="M 4.214844 3.730469 L 25.988281 3.730469 L 25.988281 25.503906 L 4.214844 25.503906 Z M 4.214844 3.730469 " clip-rule="nonzero"/></clipPath></defs><g clip-path="url(#a8f0669e2c)"><path fill="#000000" d="M 15.101562 3.730469 C 9.097656 3.730469 4.214844 8.613281 4.214844 14.617188 C 4.214844 20.621094 9.097656 25.503906 15.101562 25.503906 C 21.101562 25.503906 25.988281 20.621094 25.988281 14.617188 C 25.988281 8.613281 21.101562 3.730469 15.101562 3.730469 Z M 22.160156 16.902344 C 22.160156 19.535156 20.019531 21.675781 17.386719 21.675781 L 12.8125 21.675781 C 10.183594 21.675781 8.039062 19.535156 8.039062 16.902344 L 8.039062 12.328125 C 8.039062 9.699219 10.183594 7.554688 12.8125 7.554688 L 17.386719 7.554688 C 20.019531 7.554688 22.160156 9.699219 22.160156 12.328125 Z M 22.160156 16.902344 " fill-opacity="1" fill-rule="nonzero"/></g><path fill="#000000" d="M 18.324219 9.914062 L 19.789062 9.914062 L 19.789062 11.378906 L 18.324219 11.378906 Z M 18.324219 9.914062 " fill-opacity="1" fill-rule="nonzero"/><path fill="#000000" d="M 15.101562 17.222656 C 16.539062 17.222656 17.707031 16.054688 17.707031 14.617188 C 17.707031 14.082031 17.546875 13.566406 17.242188 13.125 C 16.753906 12.425781 15.953125 12.007812 15.101562 12.007812 C 14.25 12.007812 13.449219 12.425781 12.960938 13.128906 C 12.652344 13.566406 12.492188 14.082031 12.492188 14.617188 C 12.492188 16.054688 13.664062 17.222656 15.101562 17.222656 Z M 15.101562 17.222656 " fill-opacity="1" fill-rule="nonzero"/><path fill="#000000" d="M 18.675781 14.617188 C 18.675781 16.585938 17.070312 18.191406 15.101562 18.191406 C 13.128906 18.191406 11.523438 16.585938 11.523438 14.617188 C 11.523438 14.171875 11.605469 13.742188 11.761719 13.335938 L 9.007812 13.335938 L 9.007812 16.902344 C 9.007812 19 10.714844 20.707031 12.8125 20.707031 L 17.386719 20.707031 C 19.484375 20.707031 21.191406 19 21.191406 16.902344 L 21.191406 13.335938 L 18.4375 13.335938 C 18.59375 13.742188 18.675781 14.171875 18.675781 14.617188 Z M 18.675781 14.617188 " fill-opacity="1" fill-rule="nonzero"/></svg>