<svg xmlns="http://www.w3.org/2000/svg" xmlns:xlink="http://www.w3.org/1999/xlink" width="40" zoomAndPan="magnify" viewBox="0 0 30 30.000001" height="40" preserveAspectRatio="xMidYMid meet" version="1.0"><defs><clipPath id="5592827178"><path d="M 4.066406 3.757812 L 25.84375 3.757812 L 25.84375 25.53125 L 4.066406 25.53125 Z M 4.066406 3.757812 " clip-rule="nonzero"/></clipPath></defs><g clip-path="url(#5592827178)"><path fill="#000000" d="M 25.921875 14.683594 C 25.921875 20.71875 21.027344 25.609375 14.992188 25.609375 C 8.957031 25.609375 4.066406 20.71875 4.066406 14.683594 C 4.066406 8.648438 8.957031 3.757812 14.992188 3.757812 C 21.027344 3.757812 25.921875 8.648438 25.921875 14.683594 Z M 25.921875 14.683594 " fill-opacity="1" fill-rule="nonzero"/></g><path fill="#ffffff" d="M 14.996094 7.917969 C 11.308594 7.917969 8.320312 10.90625 8.320312 14.589844 C 8.320312 17.324219 9.964844 19.671875 12.316406 20.703125 C 12.296875 20.238281 12.3125 19.679688 12.429688 19.171875 C 12.558594 18.628906 13.289062 15.535156 13.289062 15.535156 C 13.289062 15.535156 13.078125 15.109375 13.078125 14.480469 C 13.078125 13.492188 13.652344 12.75 14.363281 12.75 C 14.96875 12.75 15.265625 13.207031 15.265625 13.753906 C 15.265625 14.363281 14.875 15.277344 14.675781 16.121094 C 14.507812 16.828125 15.03125 17.40625 15.726562 17.40625 C 16.992188 17.40625 17.84375 15.785156 17.84375 13.859375 C 17.84375 12.394531 16.859375 11.300781 15.066406 11.300781 C 13.042969 11.300781 11.78125 12.8125 11.78125 14.496094 C 11.78125 15.078125 11.953125 15.488281 12.222656 15.804688 C 12.34375 15.953125 12.363281 16.011719 12.316406 16.179688 C 12.285156 16.300781 12.210938 16.597656 12.179688 16.714844 C 12.136719 16.882812 12 16.945312 11.847656 16.878906 C 10.914062 16.5 10.480469 15.480469 10.480469 14.332031 C 10.480469 12.4375 12.078125 10.164062 15.25 10.164062 C 17.796875 10.164062 19.476562 12.007812 19.476562 13.984375 C 19.476562 16.605469 18.019531 18.558594 15.875 18.558594 C 15.152344 18.558594 14.476562 18.167969 14.246094 17.726562 C 14.246094 17.726562 13.855469 19.265625 13.773438 19.5625 C 13.632812 20.078125 13.355469 20.589844 13.101562 20.992188 C 13.703125 21.167969 14.335938 21.265625 14.992188 21.265625 C 18.679688 21.265625 21.667969 18.277344 21.667969 14.589844 C 21.667969 10.90625 18.679688 7.917969 14.996094 7.917969 Z M 14.996094 7.917969 " fill-opacity="1" fill-rule="nonzero"/></svg>